<svg width="32" height="30" viewBox="0 0 32 30" fill="none" xmlns="http://www.w3.org/2000/svg">
<path d="M15.4667 9.42035C16.4436 9.42035 17.2381 10.1874 17.2381 11.1305C17.2381 12.0708 16.4436 12.8378 15.4667 12.8378C14.4897 12.8378 13.6953 12.0708 13.6953 11.1305C13.6953 10.1874 14.4897 9.42035 15.4667 9.42035ZM15.4667 15.2582C17.8266 15.2582 19.7451 13.406 19.7451 11.1305C19.7451 8.85219 17.8266 7 15.4667 7C13.1067 7 11.1911 8.85219 11.1911 11.1305C11.1911 13.406 13.1067 15.2582 15.4667 15.2582ZM17.1969 18.6273C18.0679 18.4342 18.9065 18.1018 19.6804 17.6331C20.266 17.278 20.4425 16.5308 20.0747 15.9655C19.7039 15.3974 18.933 15.2269 18.3445 15.5848C16.5937 16.6473 14.3397 16.6473 12.5859 15.5848C12.0003 15.2269 11.2265 15.3974 10.8586 15.9655C10.4908 16.5308 10.6674 17.278 11.2529 17.6331C12.0268 18.1018 12.8655 18.4342 13.7365 18.6273L11.3442 20.934C10.8557 21.4056 10.8557 22.1726 11.3442 22.6442C11.5913 22.88 11.9091 22.9993 12.2299 22.9993C12.5506 22.9993 12.8713 22.88 13.1185 22.6442L15.4667 20.3772L17.8178 22.6442C18.3062 23.1186 19.0978 23.1186 19.5892 22.6442C20.0776 22.1726 20.0776 21.4056 19.5892 20.934L17.1969 18.6273Z" fill="#2D383F"/>
</svg>
