<svg width="32" height="30" viewBox="0 0 32 30" fill="none" xmlns="http://www.w3.org/2000/svg">
<path d="M17.4525 7C16.9736 7 16.5243 7.24401 16.236 7.59589C15.9478 7.94777 15.7889 8.37671 15.6732 8.82877C15.4894 9.55565 15.4326 10.3622 15.419 11.089C14.0732 11.1789 12.8545 11.5796 11.8423 12.1986C11.4315 11.8519 10.9367 11.6592 10.4624 11.6644C9.92224 11.6695 9.40933 11.9033 9.02806 12.3836C8.29954 13.3005 8.38351 14.8005 9.22777 15.6918C9.17557 15.9666 9.13699 16.2491 9.13699 16.5342C9.13699 19.5548 12.2099 22 16 22C19.7901 22 22.863 19.5522 22.863 16.5342C22.863 16.2491 22.8244 15.9666 22.7722 15.6918C23.6165 14.8005 23.7005 13.3005 22.9719 12.3836C22.5907 11.9033 22.0778 11.6695 21.5376 11.6644C21.0633 11.6592 20.5685 11.8519 20.1577 12.1986C19.1501 11.5822 17.9382 11.1815 16.5992 11.089C16.6173 10.4187 16.665 9.7226 16.7989 9.19863C16.8828 8.86986 16.9827 8.63099 17.0894 8.5C17.196 8.36901 17.2732 8.31507 17.4525 8.31507C17.8406 8.31507 17.8905 8.44092 18.1243 8.74658C18.2423 8.90068 18.3784 9.09332 18.5963 9.28082C18.8142 9.46832 19.1365 9.63014 19.486 9.63014V8.31507C19.3884 8.31507 19.3702 8.3125 19.3044 8.25342C19.2386 8.19435 19.1478 8.05822 19.0139 7.88356C18.7461 7.53168 18.2264 7 17.4525 7ZM21.229 7.12329C20.3257 7.12329 19.5949 7.95034 19.5949 8.9726C19.5949 9.99486 20.3257 10.8219 21.229 10.8219C22.1322 10.8219 22.863 9.99486 22.863 8.9726C22.863 7.95034 22.1322 7.12329 21.229 7.12329ZM21.229 7.78082C21.81 7.78082 22.282 8.31507 22.282 8.9726C22.282 9.63014 21.81 10.1644 21.229 10.1644C20.648 10.1644 20.1759 9.63014 20.1759 8.9726C20.1759 8.31507 20.648 7.78082 21.229 7.78082ZM16 12.1164C19.2159 12.1164 21.937 14.143 21.937 16.5342C21.937 18.9281 19.2159 20.9521 16 20.9521C12.7841 20.9521 10.063 18.9281 10.063 16.5342C10.063 14.143 12.7841 12.1164 16 12.1164ZM10.4805 12.7123C10.6417 12.7149 10.8096 12.756 10.9708 12.8356C10.3875 13.3365 9.92451 13.9118 9.60905 14.5616C9.39118 14.0531 9.45019 13.4187 9.71799 13.0822C9.91317 12.8356 10.1832 12.7098 10.4805 12.7123ZM21.5195 12.7123C21.8168 12.7098 22.0868 12.8356 22.282 13.0822C22.5498 13.4187 22.6088 14.0531 22.3909 14.5616C22.0755 13.9118 21.6125 13.3365 21.0292 12.8356C21.1904 12.756 21.3583 12.7149 21.5195 12.7123ZM13.676 14.3562C13.095 14.3562 12.623 14.8904 12.623 15.5479C12.623 16.2055 13.095 16.7397 13.676 16.7397C14.257 16.7397 14.7291 16.2055 14.7291 15.5479C14.7291 14.8904 14.257 14.3562 13.676 14.3562ZM18.324 14.3562C17.743 14.3562 17.2709 14.8904 17.2709 15.5479C17.2709 16.2055 17.743 16.7397 18.324 16.7397C18.905 16.7397 19.377 16.2055 19.377 15.5479C19.377 14.8904 18.905 14.3562 18.324 14.3562ZM13.1132 18.4041C13.4831 19.2697 14.6269 20.1096 16 20.1096C17.3731 20.1096 18.535 19.2697 18.905 18.4041C18.2332 18.8947 17.1733 19.226 16 19.226C14.8267 19.226 13.785 18.8947 13.1132 18.4041Z" fill="#2D383F"/>
</svg>
