<svg width="32" height="30" viewBox="0 0 32 30" fill="none" xmlns="http://www.w3.org/2000/svg">
<path d="M24.3812 19.0274C24.3353 18.9564 24.0516 18.3866 22.6862 17.2153C21.2567 15.9888 21.4487 16.188 23.1705 14.0673C24.2191 12.7757 24.6383 11.987 24.5071 11.6498C24.3823 11.3284 23.611 11.4132 23.611 11.4132L21.0466 11.427C21.0466 11.427 20.8567 11.4033 20.7148 11.4812C20.5772 11.5581 20.4887 11.7356 20.4887 11.7356C20.4887 11.7356 20.0822 12.7353 19.5403 13.5852C18.3978 15.3785 17.9402 15.4732 17.7535 15.3618C17.3194 15.1025 17.4282 14.3187 17.4282 13.7626C17.4282 12.0245 17.713 11.2998 16.8724 11.1125C16.5929 11.0504 16.3881 11.009 15.6744 11.0021C14.7592 10.9932 13.9836 11.005 13.5452 11.2032C13.2529 11.3353 13.0278 11.6301 13.1655 11.6468C13.3351 11.6676 13.7191 11.7425 13.9228 11.9988C14.1863 12.3291 14.1767 13.0725 14.1767 13.0725C14.1767 13.0725 14.3282 15.1183 13.8236 15.3726C13.4769 15.5471 13.0022 15.1912 11.9835 13.5635C11.4619 12.7304 11.0672 11.8085 11.0672 11.8085C11.0672 11.8085 10.9914 11.637 10.856 11.5453C10.6917 11.4339 10.4613 11.3984 10.4613 11.3984L8.02268 11.4122C8.02268 11.4122 7.65679 11.4221 7.52238 11.569C7.4029 11.7001 7.51278 11.9702 7.51278 11.9702C7.51278 11.9702 9.42225 16.0983 11.5835 18.1795C13.5666 20.0873 15.8174 19.9621 15.8174 19.9621H16.8372C16.8372 19.9621 17.1455 19.9305 17.3023 19.7738C17.4474 19.6298 17.442 19.3597 17.442 19.3597C17.442 19.3597 17.4218 18.0948 18.0575 17.9084C18.6837 17.725 19.4881 19.131 20.3404 19.6722C20.9847 20.0814 21.4743 19.9917 21.4743 19.9917L23.754 19.9621C23.754 19.9621 24.9466 19.8941 24.3812 19.0274Z" fill="#2D383F"/>
</svg>
