<svg width="24" height="24" viewBox="0 0 24 24" fill="none" xmlns="http://www.w3.org/2000/svg">
<path d="M11.6621 17.7209C10.9228 14.5978 8.74858 11.9693 5.75501 10.5793C4.28072 9.89482 2.68671 9.54743 1.09091 9.53714C1.18424 11.7502 2.00104 13.9044 3.46396 15.6731C5.52039 18.1593 8.63138 19.6149 11.927 19.6361C11.9 18.9965 11.8124 18.3555 11.6621 17.7209ZM11.6621 17.7209C11.0552 15.1571 9.48119 12.9266 7.28082 11.441C7.31797 11.2194 7.36258 10.9984 7.41474 10.778C8.04028 8.13567 9.69294 5.84731 12 4.36364C14.307 5.84731 15.9596 8.13567 16.5852 10.778C16.6373 10.9983 16.6819 11.2194 16.7191 11.4409C14.5187 12.9265 12.9448 15.1571 12.3379 17.7209M11.6621 17.7209C11.8123 18.3553 11.8999 18.9961 11.9269 19.6355C11.9725 19.6361 12.0182 19.6364 12.0638 19.6364C12.9877 19.6364 13.8975 19.5236 14.7743 19.3069C14.7793 19.3003 14.7842 19.2937 14.7892 19.2872C13.9112 19.5109 12.9995 19.6301 12.073 19.6361M12.3379 17.7209C13.0772 14.5978 15.2514 11.9693 18.245 10.5793C19.7193 9.89482 21.3133 9.54743 22.9091 9.53714C22.8158 11.7502 21.999 13.9044 20.536 15.6731C18.4796 18.1593 15.3686 19.6149 12.073 19.6361M12.3379 17.7209C12.1877 18.3555 12.1 18.9965 12.073 19.6361" stroke="#0266C1" stroke-linecap="round" stroke-linejoin="round"/>
</svg>
