<svg width="24" height="24" viewBox="0 0 24 24" fill="none" xmlns="http://www.w3.org/2000/svg">
<path d="M9.54547 11.904L12 14.3522L16.2955 10.0678M12 1.09091C9.46766 2.3858 6.64644 3.07433 3.76257 3.07433C3.37322 3.07433 2.98502 3.06178 2.59851 3.03688C2.0996 5.31305 2.04439 7.68149 2.45616 10.0107C3.19328 14.1803 5.37973 17.9576 8.63152 20.6792C9.67413 21.5518 10.8049 22.298 12 22.9091C13.1951 22.298 14.3259 21.5518 15.3685 20.6792C18.6203 17.9576 20.8067 14.1803 21.5438 10.0107C21.9556 7.68149 21.9004 5.31305 21.4015 3.03687C21.015 3.06177 20.6267 3.07433 20.2374 3.07433C17.3535 3.07433 14.5323 2.3858 12 1.09091Z" stroke="#0266C1"/>
</svg>
